<?xml version="1.0" standalone="no"?>
 <!DOCTYPE svg PUBLIC "-//W3C//DTD SVG 1.1//EN" 
 "http://www.w3.org/Graphics/SVG/1.1/DTD/svg11.dtd"> 
<svg xmlns="http://www.w3.org/2000/svg" version="1.1" 
    width="27.94cm" height="21.59cm" viewBox="0 0 109999 84999 ">
<title>SVG Picture created as BlockDiagram.svg date 2013/09/18 15:13:43 </title>
  <desc>Picture generated by Eeschema-SVG </desc>
<g style="fill:#000000; fill-opacity:1;stroke:#000000; stroke-opacity:1;
stroke-linecap:round; stroke-linejoin:round; "
 transform="translate(0 0) scale(1 1)">
</g>
<g style="fill:#9F0000; fill-opacity:0.0; 
stroke:#9F0000; stroke-width:100; stroke-opacity:1; 
stroke-linecap:round; stroke-linejoin:round;">
<path d="M4000 4000
L106000 4000
L106000 81000
L4000 81000
L4000 4000
" />
<path d="M4700 4700
L105300 4700
L105300 80300
L4700 80300
L4700 4700
" />
<path d="M24400 4000
L24400 4700
" />
<path d="M14340 4550
L14060 4550
" />
<path d="M14200 4550
L14200 4050
L14150 4120
L14100 4170
L14060 4200
" />
<path d="M24400 81000
L24400 80300
" />
<path d="M14340 80850
L14060 80850
" />
<path d="M14200 80850
L14200 80350
L14150 80420
L14100 80470
L14060 80500
" />
<path d="M44800 4000
L44800 4700
" />
<path d="M34460 4100
L34480 4080
L34530 4050
L34650 4050
L34690 4080
L34720 4100
L34740 4150
L34740 4200
L34720 4270
L34430 4550
L34740 4550
" />
<path d="M44800 81000
L44800 80300
" />
<path d="M34460 80400
L34480 80380
L34530 80350
L34650 80350
L34690 80380
L34720 80400
L34740 80450
L34740 80500
L34720 80570
L34430 80850
L34740 80850
" />
<path d="M65200 4000
L65200 4700
" />
<path d="M54830 4050
L55140 4050
L54970 4240
L55050 4240
L55090 4270
L55120 4290
L55140 4340
L55140 4460
L55120 4500
L55090 4530
L55050 4550
L54900 4550
L54860 4530
L54830 4500
" />
<path d="M65200 81000
L65200 80300
" />
<path d="M54830 80350
L55140 80350
L54970 80540
L55050 80540
L55090 80570
L55120 80590
L55140 80640
L55140 80760
L55120 80800
L55090 80830
L55050 80850
L54900 80850
L54860 80830
L54830 80800
" />
<path d="M85600 4000
L85600 4700
" />
<path d="M75490 4220
L75490 4550
" />
<path d="M75370 4030
L75260 4390
L75560 4390
" />
<path d="M85600 81000
L85600 80300
" />
<path d="M75490 80520
L75490 80850
" />
<path d="M75370 80330
L75260 80690
L75560 80690
" />
<path d="M95920 4050
L95680 4050
L95660 4290
L95680 4270
L95730 4240
L95850 4240
L95890 4270
L95920 4290
L95940 4340
L95940 4460
L95920 4500
L95890 4530
L95850 4550
L95730 4550
L95680 4530
L95660 4500
" />
<path d="M95920 80350
L95680 80350
L95660 80590
L95680 80570
L95730 80540
L95850 80540
L95890 80570
L95920 80590
L95940 80640
L95940 80760
L95920 80800
L95890 80830
L95850 80850
L95730 80850
L95680 80830
L95660 80800
" />
<path d="M4000 29660
L4700 29660
" />
<path d="M4240 16890
L4470 16890
" />
<path d="M4190 17030
L4350 16530
L4520 17030
" />
<path d="M106000 29660
L105300 29660
" />
<path d="M105540 16890
L105770 16890
" />
<path d="M105490 17030
L105650 16530
L105820 17030
" />
<path d="M4000 55320
L4700 55320
" />
<path d="M4390 42430
L4460 42450
L4480 42480
L4500 42530
L4500 42600
L4480 42640
L4460 42670
L4410 42690
L4220 42690
L4220 42190
L4390 42190
L4430 42220
L4460 42240
L4480 42290
L4480 42340
L4460 42380
L4430 42410
L4390 42430
L4220 42430
" />
<path d="M106000 55320
L105300 55320
" />
<path d="M105690 42430
L105760 42450
L105780 42480
L105800 42530
L105800 42600
L105780 42640
L105760 42670
L105710 42690
L105520 42690
L105520 42190
L105690 42190
L105730 42220
L105760 42240
L105780 42290
L105780 42340
L105760 42380
L105730 42410
L105690 42430
L105520 42430
" />
<path d="M4500 68300
L4480 68330
L4410 68350
L4360 68350
L4290 68330
L4240 68280
L4220 68230
L4200 68140
L4200 68070
L4220 67970
L4240 67920
L4290 67880
L4360 67850
L4410 67850
L4480 67880
L4500 67900
" />
<path d="M105800 68300
L105780 68330
L105710 68350
L105660 68350
L105590 68330
L105540 68280
L105520 68230
L105500 68140
L105500 68070
L105520 67970
L105540 67920
L105590 67880
L105660 67850
L105710 67850
L105780 67880
L105800 67900
" />
<path d="M72450 78740
L72520 78140
L72670 78140
L72750 78170
L72800 78230
L72820 78290
L72840 78400
L72830 78490
L72790 78600
L72750 78660
L72680 78710
L72600 78740
L72450 78740
" />
<path d="M73310 78740
L73350 78430
L73320 78370
L73270 78340
L73160 78340
L73090 78370
" />
<path d="M73310 78710
L73250 78740
L73110 78740
L73050 78710
L73030 78660
L73040 78600
L73070 78540
L73140 78510
L73280 78510
L73340 78490
" />
<path d="M73560 78340
L73790 78340
" />
<path d="M73660 78140
L73600 78660
L73620 78710
L73680 78740
L73740 78740
" />
<path d="M74160 78710
L74100 78740
L73990 78740
L73930 78710
L73910 78660
L73940 78430
L73970 78370
L74040 78340
L74150 78340
L74200 78370
L74230 78430
L74220 78490
L73920 78540
" />
<path d="M74440 78690
L74470 78710
L74440 78740
L74410 78710
L74440 78690
L74440 78740
" />
<path d="M74480 78370
L74510 78400
L74480 78430
L74450 78400
L74480 78370
L74480 78430
" />
<path d="M75510 78740
L75160 78740
" />
<path d="M75340 78740
L75410 78140
L75340 78230
L75270 78290
L75210 78310
" />
<path d="M75890 78400
L75830 78370
L75810 78340
L75780 78290
L75790 78260
L75830 78200
L75860 78170
L75920 78140
L76030 78140
L76090 78170
L76120 78200
L76140 78260
L76130 78290
L76100 78340
L76060 78370
L76000 78400
L75890 78400
L75830 78430
L75790 78460
L75760 78510
L75740 78630
L75760 78690
L75790 78710
L75850 78740
L75960 78740
L76020 78710
L76050 78690
L76090 78630
L76110 78510
L76080 78460
L76060 78430
L76000 78400
" />
<path d="M76760 78710
L76820 78740
L76940 78740
L76990 78710
L77030 78660
L77030 78630
L77010 78570
L76960 78540
L76870 78540
L76820 78510
L76790 78460
L76800 78430
L76830 78370
L76900 78340
L76990 78340
L77030 78370
" />
<path d="M77510 78710
L77450 78740
L77340 78740
L77280 78710
L77260 78660
L77290 78430
L77320 78370
L77390 78340
L77500 78340
L77550 78370
L77580 78430
L77570 78490
L77270 78540
" />
<path d="M77840 78340
L77760 78940
" />
<path d="M77830 78370
L77900 78340
L78010 78340
L78060 78370
L78090 78400
L78110 78460
L78090 78630
L78050 78690
L78020 78710
L77960 78740
L77850 78740
L77790 78710
" />
<path d="M78830 78200
L78860 78170
L78920 78140
L79060 78140
L79120 78170
L79150 78200
L79170 78260
L79160 78310
L79120 78400
L78740 78740
L79110 78740
" />
<path d="M79550 78140
L79600 78140
L79660 78170
L79690 78200
L79710 78260
L79720 78370
L79710 78510
L79660 78630
L79620 78690
L79590 78710
L79530 78740
L79480 78740
L79420 78710
L79390 78690
L79370 78630
L79360 78510
L79370 78370
L79420 78260
L79460 78200
L79490 78170
L79550 78140
" />
<path d="M80250 78740
L79900 78740
" />
<path d="M80080 78740
L80150 78140
L80080 78230
L80010 78290
L79950 78310
" />
<path d="M80520 78140
L80890 78140
L80660 78370
L80740 78370
L80800 78400
L80830 78430
L80850 78490
L80830 78630
L80790 78690
L80760 78710
L80700 78740
L80530 78740
L80470 78710
L80450 78690
" />
<path d="M64040 79940
L64040 79340
" />
<path d="M64390 79940
L64130 79600
" />
<path d="M64390 79340
L64040 79690
" />
<path d="M64640 79940
L64640 79540
" />
<path d="M64640 79340
L64610 79370
L64640 79400
L64670 79370
L64640 79340
L64640 79400
" />
<path d="M65280 79890
L65250 79910
L65160 79940
L65100 79940
L65020 79910
L64960 79860
L64930 79800
L64900 79690
L64900 79600
L64930 79490
L64960 79430
L65020 79370
L65100 79340
L65160 79340
L65250 79370
L65280 79400
" />
<path d="M65790 79940
L65790 79630
L65760 79570
L65700 79540
L65590 79540
L65530 79570
" />
<path d="M65790 79910
L65730 79940
L65590 79940
L65530 79910
L65500 79860
L65500 79800
L65530 79740
L65590 79710
L65730 79710
L65790 79690
" />
<path d="M66330 79940
L66330 79340
" />
<path d="M66330 79910
L66270 79940
L66160 79940
L66100 79910
L66070 79890
L66040 79830
L66040 79660
L66070 79600
L66100 79570
L66160 79540
L66270 79540
L66330 79570
" />
<path d="M67070 79630
L67270 79630
" />
<path d="M67360 79940
L67070 79940
L67070 79340
L67360 79340
" />
<path d="M67610 79890
L67640 79910
L67610 79940
L67580 79910
L67610 79890
L67610 79940
" />
<path d="M67900 79940
L67900 79340
L68050 79340
L68130 79370
L68190 79430
L68220 79490
L68250 79600
L68250 79690
L68220 79800
L68190 79860
L68130 79910
L68050 79940
L67900 79940
" />
<path d="M68500 79890
L68530 79910
L68500 79940
L68470 79910
L68500 79890
L68500 79940
" />
<path d="M68760 79770
L69050 79770
" />
<path d="M68710 79940
L68910 79340
L69110 79940
" />
<path d="M69300 79890
L69330 79910
L69300 79940
L69270 79910
L69300 79890
L69300 79940
" />
<path d="M97600 78740
L97430 78460
" />
<path d="M97250 78740
L97320 78140
L97550 78140
L97610 78170
L97640 78200
L97660 78260
L97650 78340
L97610 78400
L97580 78430
L97510 78460
L97280 78460
" />
<path d="M98080 78710
L98020 78740
L97910 78740
L97850 78710
L97830 78660
L97860 78430
L97890 78370
L97960 78340
L98070 78340
L98120 78370
L98150 78430
L98140 78490
L97840 78540
" />
<path d="M98360 78340
L98450 78740
L98640 78340
" />
<path d="M98820 78690
L98850 78710
L98820 78740
L98790 78710
L98820 78690
L98820 78740
" />
<path d="M98860 78370
L98890 78400
L98860 78430
L98830 78400
L98860 78370
L98860 78430
" />
<path d="M64010 78710
L64100 78740
L64240 78740
L64300 78710
L64330 78690
L64360 78630
L64360 78570
L64330 78510
L64300 78490
L64240 78460
L64130 78430
L64070 78400
L64040 78370
L64010 78310
L64010 78260
L64040 78200
L64070 78170
L64130 78140
L64270 78140
L64360 78170
" />
<path d="M64610 78740
L64610 78340
" />
<path d="M64610 78140
L64580 78170
L64610 78200
L64640 78170
L64610 78140
L64610 78200
" />
<path d="M64850 78340
L65160 78340
L64850 78740
L65160 78740
" />
<path d="M65620 78710
L65560 78740
L65450 78740
L65390 78710
L65360 78660
L65360 78430
L65390 78370
L65450 78340
L65560 78340
L65620 78370
L65650 78430
L65650 78490
L65360 78540
" />
<path d="M65900 78690
L65930 78710
L65900 78740
L65870 78710
L65900 78690
L65900 78740
" />
<path d="M65900 78370
L65930 78400
L65900 78430
L65870 78400
L65900 78370
L65900 78430
" />
<path d="M66650 78140
L66650 78630
L66680 78690
L66710 78710
L66770 78740
L66880 78740
L66940 78710
L66970 78690
L67000 78630
L67000 78140
" />
<path d="M67250 78710
L67340 78740
L67480 78740
L67540 78710
L67570 78690
L67600 78630
L67600 78570
L67570 78510
L67540 78490
L67480 78460
L67370 78430
L67310 78400
L67280 78370
L67250 78310
L67250 78260
L67280 78200
L67310 78170
L67370 78140
L67510 78140
L67600 78170
" />
<path d="M68140 78740
L67850 78740
L67850 78140
" />
<path d="M68570 78710
L68510 78740
L68400 78740
L68340 78710
L68310 78660
L68310 78430
L68340 78370
L68400 78340
L68510 78340
L68570 78370
L68600 78430
L68600 78490
L68310 78540
" />
<path d="M68770 78340
L69000 78340
" />
<path d="M68850 78140
L68850 78660
L68880 78710
L68940 78740
L69000 78740
" />
<path d="M69110 78340
L69340 78340
" />
<path d="M69190 78140
L69190 78660
L69220 78710
L69280 78740
L69340 78740
" />
<path d="M69760 78710
L69700 78740
L69590 78740
L69530 78710
L69500 78660
L69500 78430
L69530 78370
L69590 78340
L69700 78340
L69760 78370
L69790 78430
L69790 78490
L69500 78540
" />
<path d="M70040 78740
L70040 78340
" />
<path d="M70040 78460
L70070 78400
L70100 78370
L70160 78340
L70210 78340
" />
<path d="M97240 79940
L97240 79340
" />
<path d="M97790 79940
L97790 79340
" />
<path d="M97790 79910
L97730 79940
L97620 79940
L97560 79910
L97530 79890
L97500 79830
L97500 79660
L97530 79600
L97560 79570
L97620 79540
L97730 79540
L97790 79570
" />
<path d="M98070 79890
L98100 79910
L98070 79940
L98040 79910
L98070 79890
L98070 79940
" />
<path d="M98070 79570
L98100 79600
L98070 79630
L98040 79600
L98070 79570
L98070 79630
" />
<path d="M99140 79940
L98790 79940
" />
<path d="M98970 79940
L98970 79340
L98910 79430
L98850 79490
L98790 79510
" />
<path d="M99820 79310
L99310 80090
" />
<path d="M100110 79600
L100050 79570
L100020 79540
L99990 79490
L99990 79460
L100020 79400
L100050 79370
L100110 79340
L100220 79340
L100280 79370
L100310 79400
L100340 79460
L100340 79490
L100310 79540
L100280 79570
L100220 79600
L100110 79600
L100050 79630
L100020 79660
L99990 79710
L99990 79830
L100020 79890
L100050 79910
L100110 79940
L100220 79940
L100280 79910
L100310 79890
L100340 79830
L100340 79710
L100310 79660
L100280 79630
L100220 79600
" />
<path d="M64040 76940
L64380 76940
" />
<path d="M64140 77540
L64210 76940
" />
<path d="M64510 77540
L64560 77140
" />
<path d="M64580 76940
L64550 76970
L64580 77000
L64610 76970
L64580 76940
L64580 77000
" />
<path d="M64770 77140
L65000 77140
" />
<path d="M64870 76940
L64810 77460
L64830 77510
L64890 77540
L64950 77540
" />
<path d="M65230 77540
L65170 77510
L65150 77460
L65210 76940
" />
<path d="M65680 77510
L65620 77540
L65510 77540
L65450 77510
L65430 77460
L65460 77230
L65490 77170
L65560 77140
L65670 77140
L65720 77170
L65750 77230
L65740 77290
L65440 77340
" />
<path d="M65960 77490
L65990 77510
L65960 77540
L65930 77510
L65960 77490
L65960 77540
" />
<path d="M66000 77170
L66030 77200
L66000 77230
L65970 77200
L66000 77170
L66000 77230
" />
<path d="M64240 74830
L64040 74830
" />
<path d="M64040 75140
L64040 74540
L64330 74540
" />
<path d="M64550 75140
L64550 74740
" />
<path d="M64550 74540
L64520 74570
L64550 74600
L64580 74570
L64550 74540
L64550 74600
" />
<path d="M64930 75140
L64870 75110
L64840 75060
L64840 74540
" />
<path d="M65380 75110
L65320 75140
L65210 75140
L65150 75110
L65120 75060
L65120 74830
L65150 74770
L65210 74740
L65320 74740
L65380 74770
L65410 74830
L65410 74890
L65120 74940
" />
<path d="M65660 75090
L65690 75110
L65660 75140
L65630 75110
L65660 75090
L65660 75140
" />
<path d="M65660 74770
L65690 74800
L65660 74830
L65630 74800
L65660 74770
L65660 74830
" />
<path d="M66610 74830
L66700 74860
L66730 74890
L66760 74940
L66760 75030
L66730 75090
L66700 75110
L66640 75140
L66410 75140
L66410 74540
L66610 74540
L66670 74570
L66700 74600
L66730 74660
L66730 74710
L66700 74770
L66670 74800
L66610 74830
L66410 74830
" />
<path d="M67100 75140
L67040 75110
L67010 75060
L67010 74540
" />
<path d="M67410 75140
L67350 75110
L67320 75090
L67290 75030
L67290 74860
L67320 74800
L67350 74770
L67410 74740
L67490 74740
L67550 74770
L67580 74800
L67610 74860
L67610 75030
L67580 75090
L67550 75110
L67490 75140
L67410 75140
" />
<path d="M68120 75110
L68060 75140
L67950 75140
L67890 75110
L67860 75090
L67830 75030
L67830 74860
L67860 74800
L67890 74770
L67950 74740
L68060 74740
L68120 74770
" />
<path d="M68370 75140
L68370 74540
" />
<path d="M68430 74910
L68600 75140
" />
<path d="M68600 74740
L68370 74970
" />
<path d="M68860 75140
L68860 74540
L69010 74540
L69090 74570
L69150 74630
L69180 74690
L69210 74800
L69210 74890
L69180 75000
L69150 75060
L69090 75110
L69010 75140
L68860 75140
" />
<path d="M69460 75140
L69460 74740
" />
<path d="M69460 74540
L69430 74570
L69460 74600
L69490 74570
L69460 74540
L69460 74600
" />
<path d="M70010 75140
L70010 74830
L69980 74770
L69920 74740
L69810 74740
L69750 74770
" />
<path d="M70010 75110
L69950 75140
L69810 75140
L69750 75110
L69720 75060
L69720 75000
L69750 74940
L69810 74910
L69950 74910
L70010 74890
" />
<path d="M70550 74740
L70550 75230
L70520 75290
L70490 75310
L70440 75340
L70350 75340
L70290 75310
" />
<path d="M70550 75110
L70490 75140
L70380 75140
L70320 75110
L70290 75090
L70260 75030
L70260 74860
L70290 74800
L70320 74770
L70380 74740
L70490 74740
L70550 74770
" />
<path d="M70830 75140
L70830 74740
" />
<path d="M70830 74860
L70860 74800
L70890 74770
L70950 74740
L71000 74740
" />
<path d="M71460 75140
L71460 74830
L71430 74770
L71370 74740
L71260 74740
L71200 74770
" />
<path d="M71460 75110
L71400 75140
L71260 75140
L71200 75110
L71170 75060
L71170 75000
L71200 74940
L71260 74910
L71400 74910
L71460 74890
" />
<path d="M71740 75140
L71740 74740
" />
<path d="M71740 74800
L71770 74770
L71830 74740
L71910 74740
L71970 74770
L72000 74830
L72000 75140
" />
<path d="M72000 74830
L72030 74770
L72090 74740
L72170 74740
L72230 74770
L72260 74830
L72260 75140
" />
<path d="M72540 75090
L72570 75110
L72540 75140
L72510 75110
L72540 75090
L72540 75140
" />
<path d="M72800 75110
L72860 75140
L72980 75140
L73030 75110
L73060 75060
L73060 75030
L73030 74970
L72980 74940
L72890 74940
L72830 74910
L72800 74860
L72800 74830
L72830 74770
L72890 74740
L72980 74740
L73030 74770
" />
<path d="M73580 75110
L73520 75140
L73410 75140
L73350 75110
L73320 75090
L73290 75030
L73290 74860
L73320 74800
L73350 74770
L73410 74740
L73520 74740
L73580 74770
" />
<path d="M73830 75140
L73830 74540
" />
<path d="M74090 75140
L74090 74830
L74060 74770
L74000 74740
L73920 74740
L73860 74770
L73830 74800
" />
<path d="M64010 76310
L64100 76340
L64240 76340
L64300 76310
L64330 76290
L64360 76230
L64360 76170
L64330 76110
L64300 76090
L64240 76060
L64130 76030
L64070 76000
L64040 75970
L64010 75910
L64010 75860
L64040 75800
L64070 75770
L64130 75740
L64270 75740
L64360 75770
" />
<path d="M64610 76340
L64610 75740
" />
<path d="M64870 76340
L64870 76030
L64840 75970
L64780 75940
L64700 75940
L64640 75970
L64610 76000
" />
<path d="M65380 76310
L65320 76340
L65210 76340
L65150 76310
L65120 76260
L65120 76030
L65150 75970
L65210 75940
L65320 75940
L65380 75970
L65410 76030
L65410 76090
L65120 76140
" />
<path d="M65890 76310
L65830 76340
L65720 76340
L65660 76310
L65630 76260
L65630 76030
L65660 75970
L65720 75940
L65830 75940
L65890 75970
L65920 76030
L65920 76090
L65630 76140
" />
<path d="M66090 75940
L66320 75940
" />
<path d="M66170 75740
L66170 76260
L66200 76310
L66260 76340
L66320 76340
" />
<path d="M66510 76290
L66540 76310
L66510 76340
L66480 76310
L66510 76290
L66510 76340
" />
<path d="M66510 75970
L66540 76000
L66510 76030
L66480 76000
L66510 75970
L66510 76030
" />
<path d="M67690 75710
L67180 76490
" />
<path d="M63300 74300
L63300 80300
" />
<path d="M63300 74300
L105300 74300
" />
<path d="M63300 74300
L105300 74300
" />
<path d="M63300 76700
L105300 76700
" />
<path d="M96500 77900
L96500 80300
" />
<path d="M63300 79100
L105300 79100
" />
<path d="M63300 77900
L105300 77900
" />
<path d="M69900 77900
L69900 79100
" />
</g>
<g style="fill:#9F0000; fill-opacity:0.0; 
stroke:#9F0000; stroke-width:60; stroke-opacity:1; 
stroke-linecap:round; stroke-linejoin:round;">
</g>
<g style="fill:#9F009F; fill-opacity:0.0; 
stroke:#9F009F; stroke-width:60; stroke-opacity:1; 
stroke-linecap:round; stroke-linejoin:round;">
<path d="M9500 64500
L22500 64500
L22500 71500
L9500 71500
L9500 64500
" />
</g>
<g style="fill:#009F9F; fill-opacity:0.0; 
stroke:#009F9F; stroke-width:60; stroke-opacity:1; 
stroke-linecap:round; stroke-linejoin:round;">
<path d="M9600 64270
L9830 64270
" />
<path d="M9550 64410
L9710 63910
L9880 64410
" />
<path d="M10050 64410
L10050 64080
" />
<path d="M10050 64170
L10070 64130
L10100 64100
L10140 64080
L10190 64080
" />
<path d="M10570 64410
L10570 63910
" />
<path d="M10570 64390
L10530 64410
L10430 64410
L10380 64390
L10360 64360
L10340 64320
L10340 64170
L10360 64130
L10380 64100
L10430 64080
L10530 64080
L10570 64100
" />
<path d="M11020 64080
L11020 64410
" />
<path d="M10810 64080
L10810 64340
L10830 64390
L10880 64410
L10950 64410
L11000 64390
L11020 64360
" />
<path d="M11260 64410
L11260 64080
" />
<path d="M11260 63910
L11240 63940
L11260 63960
L11280 63940
L11260 63910
L11260 63960
" />
<path d="M11500 64080
L11500 64410
" />
<path d="M11500 64130
L11520 64100
L11570 64080
L11640 64080
L11690 64100
L11710 64150
L11710 64410
" />
<path d="M12020 64410
L11970 64390
L11950 64360
L11930 64320
L11930 64170
L11950 64130
L11970 64100
L12020 64080
L12090 64080
L12140 64100
L12160 64130
L12190 64170
L12190 64320
L12160 64360
L12140 64390
L12090 64410
L12020 64410
" />
</g>
<g style="fill:#7F7F00; fill-opacity:0.0; 
stroke:#7F7F00; stroke-width:60; stroke-opacity:1; 
stroke-linecap:round; stroke-linejoin:round;">
<path d="M9600 71850
L9830 71850
" />
<path d="M9550 71990
L9710 71490
L9880 71990
" />
<path d="M10050 71990
L10050 71660
" />
<path d="M10050 71750
L10070 71710
L10100 71680
L10140 71660
L10190 71660
" />
<path d="M10570 71990
L10570 71490
" />
<path d="M10570 71970
L10530 71990
L10430 71990
L10380 71970
L10360 71940
L10340 71900
L10340 71750
L10360 71710
L10380 71680
L10430 71660
L10530 71660
L10570 71680
" />
<path d="M11020 71660
L11020 71990
" />
<path d="M10810 71660
L10810 71920
L10830 71970
L10880 71990
L10950 71990
L11000 71970
L11020 71940
" />
<path d="M11260 71990
L11260 71660
" />
<path d="M11260 71490
L11240 71520
L11260 71540
L11280 71520
L11260 71490
L11260 71540
" />
<path d="M11500 71660
L11500 71990
" />
<path d="M11500 71710
L11520 71680
L11570 71660
L11640 71660
L11690 71680
L11710 71730
L11710 71990
" />
<path d="M12020 71990
L11970 71970
L11950 71940
L11930 71900
L11930 71750
L11950 71710
L11970 71680
L12020 71660
L12090 71660
L12140 71680
L12160 71710
L12190 71750
L12190 71900
L12160 71940
L12140 71970
L12090 71990
L12020 71990
" />
<path d="M12400 71940
L12420 71970
L12400 71990
L12380 71970
L12400 71940
L12400 71990
" />
<path d="M12620 71970
L12660 71990
L12760 71990
L12810 71970
L12830 71920
L12830 71900
L12810 71850
L12760 71830
L12690 71830
L12640 71800
L12620 71750
L12620 71730
L12640 71680
L12690 71660
L12760 71660
L12810 71680
" />
<path d="M13250 71970
L13210 71990
L13110 71990
L13060 71970
L13040 71940
L13020 71900
L13020 71750
L13040 71710
L13060 71680
L13110 71660
L13210 71660
L13250 71680
" />
<path d="M13470 71990
L13470 71490
" />
<path d="M13680 71990
L13680 71730
L13660 71680
L13610 71660
L13540 71660
L13490 71680
L13470 71710
" />
</g>
<g style="fill:#9F009F; fill-opacity:0.0; 
stroke:#9F009F; stroke-width:60; stroke-opacity:1; 
stroke-linecap:round; stroke-linejoin:round;">
<path d="M55000 50500
L68000 50500
L68000 56000
L55000 56000
L55000 50500
" />
</g>
<g style="fill:#009F9F; fill-opacity:0.0; 
stroke:#009F9F; stroke-width:60; stroke-opacity:1; 
stroke-linecap:round; stroke-linejoin:round;">
<path d="M55050 49910
L55330 49910
" />
<path d="M55190 50410
L55190 49910
" />
<path d="M55500 50410
L55500 49910
" />
<path d="M55710 50410
L55710 50150
L55690 50100
L55640 50080
L55570 50080
L55520 50100
L55500 50130
" />
<path d="M56140 50390
L56090 50410
L56000 50410
L55950 50390
L55930 50340
L55930 50150
L55950 50100
L56000 50080
L56090 50080
L56140 50100
L56160 50150
L56160 50200
L55930 50250
" />
<path d="M56380 50410
L56380 50080
" />
<path d="M56380 50170
L56400 50130
L56430 50100
L56470 50080
L56520 50080
" />
<path d="M56690 50410
L56690 50080
" />
<path d="M56690 50130
L56710 50100
L56760 50080
L56830 50080
L56880 50100
L56900 50150
L56900 50410
" />
<path d="M56900 50150
L56930 50100
L56970 50080
L57050 50080
L57090 50100
L57120 50150
L57120 50410
" />
<path d="M57430 50410
L57380 50390
L57360 50360
L57340 50320
L57340 50170
L57360 50130
L57380 50100
L57430 50080
L57500 50080
L57550 50100
L57570 50130
L57600 50170
L57600 50320
L57570 50360
L57550 50390
L57500 50410
L57430 50410
" />
<path d="M58020 50390
L57980 50410
L57880 50410
L57830 50390
L57810 50360
L57790 50320
L57790 50170
L57810 50130
L57830 50100
L57880 50080
L57980 50080
L58020 50100
" />
<path d="M58310 50410
L58260 50390
L58240 50360
L58220 50320
L58220 50170
L58240 50130
L58260 50100
L58310 50080
L58380 50080
L58430 50100
L58450 50130
L58480 50170
L58480 50320
L58450 50360
L58430 50390
L58380 50410
L58310 50410
" />
<path d="M58900 50080
L58900 50410
" />
<path d="M58690 50080
L58690 50340
L58710 50390
L58760 50410
L58830 50410
L58880 50390
L58900 50360
" />
<path d="M59140 50080
L59140 50580
" />
<path d="M59140 50100
L59190 50080
L59280 50080
L59330 50100
L59350 50130
L59380 50170
L59380 50320
L59350 50360
L59330 50390
L59280 50410
L59190 50410
L59140 50390
" />
<path d="M59660 50410
L59610 50390
L59590 50340
L59590 49910
" />
<path d="M60040 50390
L59990 50410
L59900 50410
L59850 50390
L59830 50340
L59830 50150
L59850 50100
L59900 50080
L59990 50080
L60040 50100
L60060 50150
L60060 50200
L59830 50250
" />
</g>
<g style="fill:#7F7F00; fill-opacity:0.0; 
stroke:#7F7F00; stroke-width:60; stroke-opacity:1; 
stroke-linecap:round; stroke-linejoin:round;">
<path d="M55050 55990
L55330 55990
" />
<path d="M55190 56490
L55190 55990
" />
<path d="M55500 56490
L55500 55990
" />
<path d="M55710 56490
L55710 56230
L55690 56180
L55640 56160
L55570 56160
L55520 56180
L55500 56210
" />
<path d="M56140 56470
L56090 56490
L56000 56490
L55950 56470
L55930 56420
L55930 56230
L55950 56180
L56000 56160
L56090 56160
L56140 56180
L56160 56230
L56160 56280
L55930 56330
" />
<path d="M56380 56490
L56380 56160
" />
<path d="M56380 56250
L56400 56210
L56430 56180
L56470 56160
L56520 56160
" />
<path d="M56690 56490
L56690 56160
" />
<path d="M56690 56210
L56710 56180
L56760 56160
L56830 56160
L56880 56180
L56900 56230
L56900 56490
" />
<path d="M56900 56230
L56930 56180
L56970 56160
L57050 56160
L57090 56180
L57120 56230
L57120 56490
" />
<path d="M57430 56490
L57380 56470
L57360 56440
L57340 56400
L57340 56250
L57360 56210
L57380 56180
L57430 56160
L57500 56160
L57550 56180
L57570 56210
L57600 56250
L57600 56400
L57570 56440
L57550 56470
L57500 56490
L57430 56490
" />
<path d="M58020 56470
L57980 56490
L57880 56490
L57830 56470
L57810 56440
L57790 56400
L57790 56250
L57810 56210
L57830 56180
L57880 56160
L57980 56160
L58020 56180
" />
<path d="M58310 56490
L58260 56470
L58240 56440
L58220 56400
L58220 56250
L58240 56210
L58260 56180
L58310 56160
L58380 56160
L58430 56180
L58450 56210
L58480 56250
L58480 56400
L58450 56440
L58430 56470
L58380 56490
L58310 56490
" />
<path d="M58900 56160
L58900 56490
" />
<path d="M58690 56160
L58690 56420
L58710 56470
L58760 56490
L58830 56490
L58880 56470
L58900 56440
" />
<path d="M59140 56160
L59140 56660
" />
<path d="M59140 56180
L59190 56160
L59280 56160
L59330 56180
L59350 56210
L59380 56250
L59380 56400
L59350 56440
L59330 56470
L59280 56490
L59190 56490
L59140 56470
" />
<path d="M59660 56490
L59610 56470
L59590 56420
L59590 55990
" />
<path d="M60040 56470
L59990 56490
L59900 56490
L59850 56470
L59830 56420
L59830 56230
L59850 56180
L59900 56160
L59990 56160
L60040 56180
L60060 56230
L60060 56280
L59830 56330
" />
<path d="M60280 56440
L60300 56470
L60280 56490
L60260 56470
L60280 56440
L60280 56490
" />
<path d="M60500 56470
L60540 56490
L60640 56490
L60690 56470
L60710 56420
L60710 56400
L60690 56350
L60640 56330
L60570 56330
L60520 56300
L60500 56250
L60500 56230
L60520 56180
L60570 56160
L60640 56160
L60690 56180
" />
<path d="M61130 56470
L61090 56490
L60990 56490
L60940 56470
L60920 56440
L60900 56400
L60900 56250
L60920 56210
L60940 56180
L60990 56160
L61090 56160
L61130 56180
" />
<path d="M61350 56490
L61350 55990
" />
<path d="M61560 56490
L61560 56230
L61540 56180
L61490 56160
L61420 56160
L61370 56180
L61350 56210
" />
</g>
<g style="fill:#9F009F; fill-opacity:0.0; 
stroke:#9F009F; stroke-width:60; stroke-opacity:1; 
stroke-linecap:round; stroke-linejoin:round;">
</g>
<g style="fill:#7F7F00; fill-opacity:0.0; 
stroke:#7F7F00; stroke-width:60; stroke-opacity:1; 
stroke-linecap:round; stroke-linejoin:round;">
<path d="M63660 52640
L64000 52640
" />
<path d="M63830 53240
L63830 52640
" />
<path d="M64550 53190
L64520 53210
L64430 53240
L64370 53240
L64290 53210
L64230 53160
L64200 53100
L64170 52990
L64170 52900
L64200 52790
L64230 52730
L64290 52670
L64370 52640
L64430 52640
L64520 52670
L64550 52700
" />
<path d="M65260 53240
L65260 52640
" />
<path d="M65550 53240
L65550 52640
L65900 53240
L65900 52640
" />
<path d="M66640 53010
L67100 53010
" />
<path d="M66870 53240
L66870 52790
" />
</g>
<g style="fill:#7F7F00; fill-opacity:0.0; 
stroke:#7F7F00; stroke-width:100; stroke-opacity:1; 
stroke-linecap:round; stroke-linejoin:round;">
<polyline fill="none;"
points="67400,53000
67700,53300
68000,53300
68000,52700
67700,52700
67400,53000
" /> 
</g>
<g style="fill:#7F7F00; fill-opacity:0.0; 
stroke:#7F7F00; stroke-width:60; stroke-opacity:1; 
stroke-linecap:round; stroke-linejoin:round;">
<path d="M63750 54640
L64090 54640
" />
<path d="M63920 55240
L63920 54640
" />
<path d="M64640 55190
L64610 55210
L64520 55240
L64460 55240
L64380 55210
L64320 55160
L64290 55100
L64260 54990
L64260 54900
L64290 54790
L64320 54730
L64380 54670
L64460 54640
L64520 54640
L64610 54670
L64640 54700
" />
<path d="M65350 55240
L65350 54840
" />
<path d="M65350 54640
L65320 54670
L65350 54700
L65380 54670
L65350 54640
L65350 54700
" />
<path d="M65640 54840
L65640 55240
" />
<path d="M65640 54900
L65670 54870
L65730 54840
L65810 54840
L65870 54870
L65900 54930
L65900 55240
" />
<path d="M66640 55010
L67100 55010
" />
</g>
<g style="fill:#7F7F00; fill-opacity:0.0; 
stroke:#7F7F00; stroke-width:100; stroke-opacity:1; 
stroke-linecap:round; stroke-linejoin:round;">
<polyline fill="none;"
points="67400,55000
67700,55300
68000,55300
68000,54700
67700,54700
67400,55000
" /> 
</g>
<g style="fill:#7F7F00; fill-opacity:0.0; 
stroke:#7F7F00; stroke-width:60; stroke-opacity:1; 
stroke-linecap:round; stroke-linejoin:round;">
</g>
<g style="fill:#9F009F; fill-opacity:0.0; 
stroke:#9F009F; stroke-width:60; stroke-opacity:1; 
stroke-linecap:round; stroke-linejoin:round;">
<path d="M55000 20000
L68000 20000
L68000 24500
L55000 24500
L55000 20000
" />
</g>
<g style="fill:#009F9F; fill-opacity:0.0; 
stroke:#009F9F; stroke-width:60; stroke-opacity:1; 
stroke-linecap:round; stroke-linejoin:round;">
<path d="M55120 19910
L55120 19410
L55310 19410
L55360 19440
L55380 19460
L55400 19510
L55400 19580
L55380 19630
L55360 19650
L55310 19670
L55120 19670
" />
<path d="M55690 19910
L55640 19890
L55620 19860
L55600 19820
L55600 19670
L55620 19630
L55640 19600
L55690 19580
L55760 19580
L55810 19600
L55830 19630
L55860 19670
L55860 19820
L55830 19860
L55810 19890
L55760 19910
L55690 19910
" />
<path d="M56020 19580
L56120 19910
L56210 19670
L56310 19910
L56400 19580
" />
<path d="M56780 19890
L56730 19910
L56640 19910
L56590 19890
L56570 19840
L56570 19650
L56590 19600
L56640 19580
L56730 19580
L56780 19600
L56800 19650
L56800 19700
L56570 19750
" />
<path d="M57020 19910
L57020 19580
" />
<path d="M57020 19670
L57040 19630
L57070 19600
L57110 19580
L57160 19580
" />
</g>
<g style="fill:#7F7F00; fill-opacity:0.0; 
stroke:#7F7F00; stroke-width:60; stroke-opacity:1; 
stroke-linecap:round; stroke-linejoin:round;">
<path d="M55120 24990
L55120 24490
L55310 24490
L55360 24520
L55380 24540
L55400 24590
L55400 24660
L55380 24710
L55360 24730
L55310 24750
L55120 24750
" />
<path d="M55690 24990
L55640 24970
L55620 24940
L55600 24900
L55600 24750
L55620 24710
L55640 24680
L55690 24660
L55760 24660
L55810 24680
L55830 24710
L55860 24750
L55860 24900
L55830 24940
L55810 24970
L55760 24990
L55690 24990
" />
<path d="M56020 24660
L56120 24990
L56210 24750
L56310 24990
L56400 24660
" />
<path d="M56780 24970
L56730 24990
L56640 24990
L56590 24970
L56570 24920
L56570 24730
L56590 24680
L56640 24660
L56730 24660
L56780 24680
L56800 24730
L56800 24780
L56570 24830
" />
<path d="M57020 24990
L57020 24660
" />
<path d="M57020 24750
L57040 24710
L57070 24680
L57110 24660
L57160 24660
" />
<path d="M57330 24940
L57350 24970
L57330 24990
L57310 24970
L57330 24940
L57330 24990
" />
<path d="M57550 24970
L57590 24990
L57690 24990
L57740 24970
L57760 24920
L57760 24900
L57740 24850
L57690 24830
L57620 24830
L57570 24800
L57550 24750
L57550 24730
L57570 24680
L57620 24660
L57690 24660
L57740 24680
" />
<path d="M58180 24970
L58140 24990
L58040 24990
L57990 24970
L57970 24940
L57950 24900
L57950 24750
L57970 24710
L57990 24680
L58040 24660
L58140 24660
L58180 24680
" />
<path d="M58400 24990
L58400 24490
" />
<path d="M58610 24990
L58610 24730
L58590 24680
L58540 24660
L58470 24660
L58420 24680
L58400 24710
" />
</g>
<g style="fill:#9F009F; fill-opacity:0.0; 
stroke:#9F009F; stroke-width:60; stroke-opacity:1; 
stroke-linecap:round; stroke-linejoin:round;">
<path d="M55000 28000
L68000 28000
L68000 33000
L55000 33000
L55000 28000
" />
</g>
<g style="fill:#009F9F; fill-opacity:0.0; 
stroke:#009F9F; stroke-width:60; stroke-opacity:1; 
stroke-linecap:round; stroke-linejoin:round;">
<path d="M55360 27910
L55120 27910
L55120 27410
" />
<path d="M55520 27650
L55690 27650
" />
<path d="M55760 27910
L55520 27910
L55520 27410
L55760 27410
" />
<path d="M55970 27910
L55970 27410
L56090 27410
L56160 27440
L56210 27480
L56230 27530
L56250 27630
L56250 27700
L56230 27790
L56210 27840
L56160 27890
L56090 27910
L55970 27910
" />
<path d="M56350 27960
L56730 27960
" />
<path d="M56850 27910
L56850 27410
L56970 27410
L57040 27440
L57090 27480
L57110 27530
L57130 27630
L57130 27700
L57110 27790
L57090 27840
L57040 27890
L56970 27910
L56850 27910
" />
<path d="M57350 27910
L57350 27580
" />
<path d="M57350 27670
L57370 27630
L57400 27600
L57440 27580
L57490 27580
" />
<path d="M57660 27910
L57660 27580
" />
<path d="M57660 27410
L57640 27440
L57660 27460
L57680 27440
L57660 27410
L57660 27460
" />
<path d="M57850 27580
L57970 27910
L58090 27580
" />
<path d="M58470 27890
L58420 27910
L58330 27910
L58280 27890
L58260 27840
L58260 27650
L58280 27600
L58330 27580
L58420 27580
L58470 27600
L58490 27650
L58490 27700
L58260 27750
" />
<path d="M58710 27910
L58710 27580
" />
<path d="M58710 27670
L58730 27630
L58760 27600
L58800 27580
L58850 27580
" />
</g>
<g style="fill:#7F7F00; fill-opacity:0.0; 
stroke:#7F7F00; stroke-width:60; stroke-opacity:1; 
stroke-linecap:round; stroke-linejoin:round;">
<path d="M55360 33490
L55120 33490
L55120 32990
" />
<path d="M55520 33230
L55690 33230
" />
<path d="M55760 33490
L55520 33490
L55520 32990
L55760 32990
" />
<path d="M55970 33490
L55970 32990
L56090 32990
L56160 33020
L56210 33060
L56230 33110
L56250 33210
L56250 33280
L56230 33370
L56210 33420
L56160 33470
L56090 33490
L55970 33490
" />
<path d="M56350 33540
L56730 33540
" />
<path d="M56850 33490
L56850 32990
L56970 32990
L57040 33020
L57090 33060
L57110 33110
L57130 33210
L57130 33280
L57110 33370
L57090 33420
L57040 33470
L56970 33490
L56850 33490
" />
<path d="M57350 33490
L57350 33160
" />
<path d="M57350 33250
L57370 33210
L57400 33180
L57440 33160
L57490 33160
" />
<path d="M57660 33490
L57660 33160
" />
<path d="M57660 32990
L57640 33020
L57660 33040
L57680 33020
L57660 32990
L57660 33040
" />
<path d="M57850 33160
L57970 33490
L58090 33160
" />
<path d="M58470 33470
L58420 33490
L58330 33490
L58280 33470
L58260 33420
L58260 33230
L58280 33180
L58330 33160
L58420 33160
L58470 33180
L58490 33230
L58490 33280
L58260 33330
" />
<path d="M58710 33490
L58710 33160
" />
<path d="M58710 33250
L58730 33210
L58760 33180
L58800 33160
L58850 33160
" />
<path d="M59020 33440
L59040 33470
L59020 33490
L59000 33470
L59020 33440
L59020 33490
" />
<path d="M59240 33470
L59280 33490
L59380 33490
L59430 33470
L59450 33420
L59450 33400
L59430 33350
L59380 33330
L59310 33330
L59260 33300
L59240 33250
L59240 33230
L59260 33180
L59310 33160
L59380 33160
L59430 33180
" />
<path d="M59870 33470
L59830 33490
L59730 33490
L59680 33470
L59660 33440
L59640 33400
L59640 33250
L59660 33210
L59680 33180
L59730 33160
L59830 33160
L59870 33180
" />
<path d="M60090 33490
L60090 32990
" />
<path d="M60300 33490
L60300 33230
L60280 33180
L60230 33160
L60160 33160
L60110 33180
L60090 33210
" />
</g>
<g style="fill:#9F009F; fill-opacity:0.0; 
stroke:#9F009F; stroke-width:60; stroke-opacity:1; 
stroke-linecap:round; stroke-linejoin:round;">
<path d="M55000 36000
L68000 36000
L68000 41000
L55000 41000
L55000 36000
" />
</g>
<g style="fill:#009F9F; fill-opacity:0.0; 
stroke:#009F9F; stroke-width:60; stroke-opacity:1; 
stroke-linecap:round; stroke-linejoin:round;">
<path d="M55290 35650
L55120 35650
" />
<path d="M55120 35910
L55120 35410
L55360 35410
" />
<path d="M55760 35910
L55760 35650
L55740 35600
L55690 35580
L55600 35580
L55550 35600
" />
<path d="M55760 35890
L55720 35910
L55600 35910
L55550 35890
L55530 35840
L55530 35790
L55550 35750
L55600 35720
L55720 35720
L55760 35700
" />
<path d="M56000 35580
L56000 35910
" />
<path d="M56000 35630
L56020 35600
L56070 35580
L56140 35580
L56190 35600
L56210 35650
L56210 35910
" />
</g>
<g style="fill:#7F7F00; fill-opacity:0.0; 
stroke:#7F7F00; stroke-width:60; stroke-opacity:1; 
stroke-linecap:round; stroke-linejoin:round;">
<path d="M55290 41230
L55120 41230
" />
<path d="M55120 41490
L55120 40990
L55360 40990
" />
<path d="M55760 41490
L55760 41230
L55740 41180
L55690 41160
L55600 41160
L55550 41180
" />
<path d="M55760 41470
L55720 41490
L55600 41490
L55550 41470
L55530 41420
L55530 41370
L55550 41330
L55600 41300
L55720 41300
L55760 41280
" />
<path d="M56000 41160
L56000 41490
" />
<path d="M56000 41210
L56020 41180
L56070 41160
L56140 41160
L56190 41180
L56210 41230
L56210 41490
" />
<path d="M56450 41440
L56470 41470
L56450 41490
L56430 41470
L56450 41440
L56450 41490
" />
<path d="M56670 41470
L56710 41490
L56810 41490
L56860 41470
L56880 41420
L56880 41400
L56860 41350
L56810 41330
L56740 41330
L56690 41300
L56670 41250
L56670 41230
L56690 41180
L56740 41160
L56810 41160
L56860 41180
" />
<path d="M57300 41470
L57260 41490
L57160 41490
L57110 41470
L57090 41440
L57070 41400
L57070 41250
L57090 41210
L57110 41180
L57160 41160
L57260 41160
L57300 41180
" />
<path d="M57520 41490
L57520 40990
" />
<path d="M57730 41490
L57730 41230
L57710 41180
L57660 41160
L57590 41160
L57540 41180
L57520 41210
" />
</g>
<g style="fill:#9F009F; fill-opacity:0.0; 
stroke:#9F009F; stroke-width:60; stroke-opacity:1; 
stroke-linecap:round; stroke-linejoin:round;">
<path d="M95000 16000
L102500 16000
L102500 61500
L95000 61500
L95000 16000
" />
</g>
<g style="fill:#009F9F; fill-opacity:0.0; 
stroke:#009F9F; stroke-width:60; stroke-opacity:1; 
stroke-linecap:round; stroke-linejoin:round;">
<path d="M95050 15410
L95330 15410
" />
<path d="M95190 15910
L95190 15410
" />
<path d="M95690 15890
L95640 15910
L95550 15910
L95500 15890
L95480 15840
L95480 15650
L95500 15600
L95550 15580
L95640 15580
L95690 15600
L95710 15650
L95710 15700
L95480 15750
" />
<path d="M95930 15910
L95930 15580
" />
<path d="M95930 15670
L95950 15630
L95980 15600
L96020 15580
L96070 15580
" />
<path d="M96240 15910
L96240 15580
" />
<path d="M96240 15630
L96260 15600
L96310 15580
L96380 15580
L96430 15600
L96450 15650
L96450 15910
" />
<path d="M96450 15650
L96480 15600
L96520 15580
L96600 15580
L96640 15600
L96670 15650
L96670 15910
" />
<path d="M96910 15910
L96910 15580
" />
<path d="M96910 15410
L96890 15440
L96910 15460
L96930 15440
L96910 15410
L96910 15460
" />
<path d="M97150 15580
L97150 15910
" />
<path d="M97150 15630
L97170 15600
L97220 15580
L97290 15580
L97340 15600
L97360 15650
L97360 15910
" />
<path d="M97810 15910
L97810 15650
L97790 15600
L97740 15580
L97650 15580
L97600 15600
" />
<path d="M97810 15890
L97770 15910
L97650 15910
L97600 15890
L97580 15840
L97580 15790
L97600 15750
L97650 15720
L97770 15720
L97810 15700
" />
<path d="M98120 15910
L98070 15890
L98050 15840
L98050 15410
" />
<path d="M98190 15960
L98570 15960
" />
<path d="M98860 15650
L98930 15670
L98950 15700
L98970 15750
L98970 15820
L98950 15860
L98930 15890
L98880 15910
L98690 15910
L98690 15410
L98860 15410
L98900 15440
L98930 15460
L98950 15510
L98950 15560
L98930 15600
L98900 15630
L98860 15650
L98690 15650
" />
<path d="M99260 15910
L99210 15890
L99190 15840
L99190 15410
" />
<path d="M99520 15910
L99470 15890
L99450 15860
L99430 15820
L99430 15670
L99450 15630
L99470 15600
L99520 15580
L99590 15580
L99640 15600
L99660 15630
L99690 15670
L99690 15820
L99660 15860
L99640 15890
L99590 15910
L99520 15910
" />
<path d="M100110 15890
L100070 15910
L99970 15910
L99920 15890
L99900 15860
L99880 15820
L99880 15670
L99900 15630
L99920 15600
L99970 15580
L100070 15580
L100110 15600
" />
<path d="M100330 15910
L100330 15410
" />
<path d="M100380 15720
L100520 15910
" />
<path d="M100520 15580
L100330 15770
" />
</g>
<g style="fill:#7F7F00; fill-opacity:0.0; 
stroke:#7F7F00; stroke-width:60; stroke-opacity:1; 
stroke-linecap:round; stroke-linejoin:round;">
<path d="M95050 61490
L95330 61490
" />
<path d="M95190 61990
L95190 61490
" />
<path d="M95690 61970
L95640 61990
L95550 61990
L95500 61970
L95480 61920
L95480 61730
L95500 61680
L95550 61660
L95640 61660
L95690 61680
L95710 61730
L95710 61780
L95480 61830
" />
<path d="M95930 61990
L95930 61660
" />
<path d="M95930 61750
L95950 61710
L95980 61680
L96020 61660
L96070 61660
" />
<path d="M96240 61990
L96240 61660
" />
<path d="M96240 61710
L96260 61680
L96310 61660
L96380 61660
L96430 61680
L96450 61730
L96450 61990
" />
<path d="M96450 61730
L96480 61680
L96520 61660
L96600 61660
L96640 61680
L96670 61730
L96670 61990
" />
<path d="M96910 61990
L96910 61660
" />
<path d="M96910 61490
L96890 61520
L96910 61540
L96930 61520
L96910 61490
L96910 61540
" />
<path d="M97150 61660
L97150 61990
" />
<path d="M97150 61710
L97170 61680
L97220 61660
L97290 61660
L97340 61680
L97360 61730
L97360 61990
" />
<path d="M97810 61990
L97810 61730
L97790 61680
L97740 61660
L97650 61660
L97600 61680
" />
<path d="M97810 61970
L97770 61990
L97650 61990
L97600 61970
L97580 61920
L97580 61870
L97600 61830
L97650 61800
L97770 61800
L97810 61780
" />
<path d="M98120 61990
L98070 61970
L98050 61920
L98050 61490
" />
<path d="M98190 62040
L98570 62040
" />
<path d="M98860 61730
L98930 61750
L98950 61780
L98970 61830
L98970 61900
L98950 61940
L98930 61970
L98880 61990
L98690 61990
L98690 61490
L98860 61490
L98900 61520
L98930 61540
L98950 61590
L98950 61640
L98930 61680
L98900 61710
L98860 61730
L98690 61730
" />
<path d="M99260 61990
L99210 61970
L99190 61920
L99190 61490
" />
<path d="M99520 61990
L99470 61970
L99450 61940
L99430 61900
L99430 61750
L99450 61710
L99470 61680
L99520 61660
L99590 61660
L99640 61680
L99660 61710
L99690 61750
L99690 61900
L99660 61940
L99640 61970
L99590 61990
L99520 61990
" />
<path d="M100110 61970
L100070 61990
L99970 61990
L99920 61970
L99900 61940
L99880 61900
L99880 61750
L99900 61710
L99920 61680
L99970 61660
L100070 61660
L100110 61680
" />
<path d="M100330 61990
L100330 61490
" />
<path d="M100380 61800
L100520 61990
" />
<path d="M100520 61660
L100330 61850
" />
<path d="M100730 61940
L100750 61970
L100730 61990
L100710 61970
L100730 61940
L100730 61990
" />
<path d="M100950 61970
L100990 61990
L101090 61990
L101140 61970
L101160 61920
L101160 61900
L101140 61850
L101090 61830
L101020 61830
L100970 61800
L100950 61750
L100950 61730
L100970 61680
L101020 61660
L101090 61660
L101140 61680
" />
<path d="M101580 61970
L101540 61990
L101440 61990
L101390 61970
L101370 61940
L101350 61900
L101350 61750
L101370 61710
L101390 61680
L101440 61660
L101540 61660
L101580 61680
" />
<path d="M101800 61990
L101800 61490
" />
<path d="M102010 61990
L102010 61730
L101990 61680
L101940 61660
L101870 61660
L101820 61680
L101800 61710
" />
</g>
<g style="fill:#9F009F; fill-opacity:0.0; 
stroke:#9F009F; stroke-width:60; stroke-opacity:1; 
stroke-linecap:round; stroke-linejoin:round;">
<path d="M55000 43500
L68000 43500
L68000 48000
L55000 48000
L55000 43500
" />
</g>
<g style="fill:#009F9F; fill-opacity:0.0; 
stroke:#009F9F; stroke-width:60; stroke-opacity:1; 
stroke-linecap:round; stroke-linejoin:round;">
<path d="M55400 43410
L55240 43170
" />
<path d="M55120 43410
L55120 42910
L55310 42910
L55360 42940
L55380 42960
L55400 43010
L55400 43080
L55380 43130
L55360 43150
L55310 43170
L55120 43170
" />
<path d="M55810 43390
L55760 43410
L55670 43410
L55620 43390
L55600 43340
L55600 43150
L55620 43100
L55670 43080
L55760 43080
L55810 43100
L55830 43150
L55830 43200
L55600 43250
" />
<path d="M56120 43410
L56070 43390
L56050 43340
L56050 42910
" />
<path d="M56520 43410
L56520 43150
L56500 43100
L56450 43080
L56360 43080
L56310 43100
" />
<path d="M56520 43390
L56480 43410
L56360 43410
L56310 43390
L56290 43340
L56290 43290
L56310 43250
L56360 43220
L56480 43220
L56520 43200
" />
<path d="M56710 43080
L56830 43410
" />
<path d="M56950 43080
L56830 43410
L56780 43530
L56760 43560
L56710 43580
" />
</g>
<g style="fill:#7F7F00; fill-opacity:0.0; 
stroke:#7F7F00; stroke-width:60; stroke-opacity:1; 
stroke-linecap:round; stroke-linejoin:round;">
<path d="M55400 48490
L55240 48250
" />
<path d="M55120 48490
L55120 47990
L55310 47990
L55360 48020
L55380 48040
L55400 48090
L55400 48160
L55380 48210
L55360 48230
L55310 48250
L55120 48250
" />
<path d="M55810 48470
L55760 48490
L55670 48490
L55620 48470
L55600 48420
L55600 48230
L55620 48180
L55670 48160
L55760 48160
L55810 48180
L55830 48230
L55830 48280
L55600 48330
" />
<path d="M56120 48490
L56070 48470
L56050 48420
L56050 47990
" />
<path d="M56520 48490
L56520 48230
L56500 48180
L56450 48160
L56360 48160
L56310 48180
" />
<path d="M56520 48470
L56480 48490
L56360 48490
L56310 48470
L56290 48420
L56290 48370
L56310 48330
L56360 48300
L56480 48300
L56520 48280
" />
<path d="M56710 48160
L56830 48490
" />
<path d="M56950 48160
L56830 48490
L56780 48610
L56760 48640
L56710 48660
" />
<path d="M57140 48440
L57160 48470
L57140 48490
L57120 48470
L57140 48440
L57140 48490
" />
<path d="M57360 48470
L57400 48490
L57500 48490
L57550 48470
L57570 48420
L57570 48400
L57550 48350
L57500 48330
L57430 48330
L57380 48300
L57360 48250
L57360 48230
L57380 48180
L57430 48160
L57500 48160
L57550 48180
" />
<path d="M57990 48470
L57950 48490
L57850 48490
L57800 48470
L57780 48440
L57760 48400
L57760 48250
L57780 48210
L57800 48180
L57850 48160
L57950 48160
L57990 48180
" />
<path d="M58210 48490
L58210 47990
" />
<path d="M58420 48490
L58420 48230
L58400 48180
L58350 48160
L58280 48160
L58230 48180
L58210 48210
" />
</g> 
</svg>
